<svg xmlns="http://www.w3.org/2000/svg" xmlns:xlink="http://www.w3.org/1999/xlink" width="952" height="534" viewBox="0 0 952 534">
  <defs>
    <clipPath id="clip-path">
      <rect width="280" height="534" fill="none"/>
    </clipPath>
    <clipPath id="clip-path-2">
      <rect width="952" height="147" fill="none"/>
    </clipPath>
  </defs>
  <g id="Group_36666" data-name="Group 36666" transform="translate(0 -105)" opacity="0.703">
    <g id="Repeat_Grid_113" data-name="Repeat Grid 113" transform="translate(182 105)" opacity="0.1" clip-path="url(#clip-path)">
      <g transform="translate(-183.5 -160)">
        <line id="Line_1471" data-name="Line 1471" y2="532.5" transform="translate(184 160)" fill="none" stroke="#fff" stroke-width="1"/>
      </g>
      <g transform="translate(-159.5 -160)">
        <line id="Line_1471-2" data-name="Line 1471" y2="532.5" transform="translate(184 160)" fill="none" stroke="#fff" stroke-width="1"/>
      </g>
      <g transform="translate(-135.5 -160)">
        <line id="Line_1471-3" data-name="Line 1471" y2="532.5" transform="translate(184 160)" fill="none" stroke="#fff" stroke-width="1"/>
      </g>
      <g transform="translate(-111.5 -160)">
        <line id="Line_1471-4" data-name="Line 1471" y2="532.5" transform="translate(184 160)" fill="none" stroke="#fff" stroke-width="1"/>
      </g>
      <g transform="translate(-87.5 -160)">
        <line id="Line_1471-5" data-name="Line 1471" y2="532.5" transform="translate(184 160)" fill="none" stroke="#fff" stroke-width="1"/>
      </g>
      <g transform="translate(-63.5 -160)">
        <line id="Line_1471-6" data-name="Line 1471" y2="532.5" transform="translate(184 160)" fill="none" stroke="#fff" stroke-width="1"/>
      </g>
      <g transform="translate(-39.5 -160)">
        <line id="Line_1471-7" data-name="Line 1471" y2="532.5" transform="translate(184 160)" fill="none" stroke="#fff" stroke-width="1"/>
      </g>
      <g transform="translate(-15.5 -160)">
        <line id="Line_1471-8" data-name="Line 1471" y2="532.5" transform="translate(184 160)" fill="none" stroke="#fff" stroke-width="1"/>
      </g>
      <g transform="translate(8.5 -160)">
        <line id="Line_1471-9" data-name="Line 1471" y2="532.5" transform="translate(184 160)" fill="none" stroke="#fff" stroke-width="1"/>
      </g>
      <g transform="translate(32.5 -160)">
        <line id="Line_1471-10" data-name="Line 1471" y2="532.5" transform="translate(184 160)" fill="none" stroke="#fff" stroke-width="1"/>
      </g>
      <g transform="translate(56.5 -160)">
        <line id="Line_1471-11" data-name="Line 1471" y2="532.5" transform="translate(184 160)" fill="none" stroke="#fff" stroke-width="1"/>
      </g>
      <g transform="translate(80.5 -160)">
        <line id="Line_1471-12" data-name="Line 1471" y2="532.5" transform="translate(184 160)" fill="none" stroke="#fff" stroke-width="1"/>
      </g>
    </g>
    <g id="Repeat_Grid_120" data-name="Repeat Grid 120" transform="translate(0 246.5)" clip-path="url(#clip-path-2)">
      <g transform="translate(0 -294.5)">
        <path id="Path_36237" data-name="Path 36237" d="M952,0H0" transform="translate(0 295)" fill="none" stroke="#fff" stroke-width="1" opacity="0.203"/>
      </g>
      <g transform="translate(0 -246.5)">
        <path id="Path_36237-2" data-name="Path 36237" d="M952,0H0" transform="translate(0 295)" fill="none" stroke="#fff" stroke-width="1" opacity="0.203"/>
      </g>
      <g transform="translate(0 -198.5)">
        <path id="Path_36237-3" data-name="Path 36237" d="M952,0H0" transform="translate(0 295)" fill="none" stroke="#fff" stroke-width="1" opacity="0.203"/>
      </g>
      <g transform="translate(0 -150.5)">
        <path id="Path_36237-4" data-name="Path 36237" d="M952,0H0" transform="translate(0 295)" fill="none" stroke="#fff" stroke-width="1" opacity="0.203"/>
      </g>
    </g>
  </g>
</svg>
