<svg id="Group_36749" data-name="Group 36749" xmlns="http://www.w3.org/2000/svg" width="64" height="64" viewBox="0 0 64 64">
  <circle id="Ellipse_241" data-name="Ellipse 241" cx="32" cy="32" r="32" fill="#0a66ec"/>
  <path id="Icon_awesome-linkedin" data-name="Icon awesome-linkedin" d="M20.57,2.25H1.577A1.589,1.589,0,0,0,0,3.847V22.8a1.589,1.589,0,0,0,1.577,1.6H20.57a1.593,1.593,0,0,0,1.582-1.6V3.847A1.593,1.593,0,0,0,20.57,2.25ZM6.7,21.237H3.412V10.666H6.7V21.237ZM5.053,9.222a1.9,1.9,0,1,1,1.9-1.9A1.9,1.9,0,0,1,5.053,9.222ZM19,21.237H15.719V16.095c0-1.226-.025-2.8-1.706-2.8-1.711,0-1.973,1.335-1.973,2.715v5.231H8.757V10.666h3.15V12.11h.045a3.458,3.458,0,0,1,3.11-1.706c3.323,0,3.941,2.19,3.941,5.039Z" transform="translate(20.924 18.674)" fill="#fff"/>
</svg>
